<svg data-v-423bf9ae="" xmlns="http://www.w3.org/2000/svg" viewBox="0 0 230.5263068555313 60" class="font"><!----><!----><defs data-v-423bf9ae=""><linearGradient data-v-423bf9ae="" gradientTransform="rotate(25)" id="69dbd755-88b5-4e1d-81e2-2d6413c25b9f" x1="0%" y1="0%" x2="100%" y2="0%"><stop data-v-423bf9ae="" offset="0%" style="stop-color: rgb(81, 164, 251); stop-opacity: 1;"></stop><stop data-v-423bf9ae="" offset="100%" style="stop-color: rgb(81, 164, 251); stop-opacity: 1;"></stop></linearGradient></defs><g data-v-423bf9ae="" id="bfec8794-f7f5-491b-9b0c-3d6d0a29bb82" fill="url(#69dbd755-88b5-4e1d-81e2-2d6413c25b9f)" transform="matrix(5.741626899055351,0,0,5.741626899055351,-7.406697878675175,-21.24401908503117)"><path d="M1.29 14.08L7.18 14.08L7.18 12.59L2.94 12.59L2.94 4.28L1.29 4.28ZM8.05 11.84C8.05 13.16 9.06 14.15 10.67 14.15C11.75 14.15 12.60 13.83 13.13 13.17L13.13 14.08L14.71 14.08L14.70 9.20C14.69 7.56 13.61 6.58 11.69 6.58C10.28 6.58 9.52 6.90 8.48 7.52L9.14 8.64C9.88 8.13 10.63 7.88 11.34 7.88C12.52 7.88 13.12 8.44 13.12 9.38L13.12 9.60L10.86 9.60C9.07 9.62 8.05 10.49 8.05 11.84ZM9.56 11.77C9.56 11.06 10.05 10.78 11.10 10.78L13.12 10.78L13.12 11.47C13.03 12.28 12.15 12.88 11.00 12.88C10.11 12.88 9.56 12.45 9.56 11.77ZM16.63 11.27C16.63 13.05 17.65 14.14 19.36 14.14C20.58 14.13 21.52 13.66 22.02 12.63L22.02 14.08L23.63 14.08L23.63 6.64L22.02 6.64L22.02 10.30C22.02 11.61 21.27 12.60 19.98 12.63C18.90 12.63 18.24 11.94 18.24 10.82L18.24 6.64L16.63 6.64ZM26.01 14.08L27.62 14.08L27.62 10.19C27.75 8.92 28.70 8.04 30.20 8.12L30.20 6.58C29.02 6.58 28.13 7.11 27.62 8.12L27.62 6.64L26.01 6.64ZM30.83 10.37C30.83 12.61 32.34 14.14 34.64 14.14C35.92 14.14 36.99 13.68 37.72 12.88L36.86 11.97C36.32 12.53 35.57 12.84 34.76 12.84C33.59 12.84 32.70 12.12 32.45 10.98L38.08 10.98C38.28 8.29 37.21 6.58 34.59 6.58C32.38 6.59 30.83 8.12 30.83 10.37ZM32.42 9.80C32.61 8.61 33.43 7.87 34.61 7.87C35.83 7.87 36.62 8.60 36.68 9.80ZM39.83 14.08L41.44 14.08L41.44 3.70L39.83 3.70Z"></path></g><!----><!----></svg>